<?xml version="1.0" encoding="UTF-8"?>
<svg id="Layer_1" data-name="Layer 1" xmlns="http://www.w3.org/2000/svg" xmlns:xlink="http://www.w3.org/1999/xlink" viewBox="0 0 967.75 951.85">
  <defs>
    <style>
      .cls-1 {
        fill: url(#linear-gradient-4);
      }

      .cls-2 {
        fill: url(#linear-gradient-3);
      }

      .cls-3 {
        fill: url(#linear-gradient-2);
      }

      .cls-4 {
        fill: url(#linear-gradient);
      }
    </style>
    <linearGradient id="linear-gradient" x1="122.66" y1="172.98" x2="702.9" y2="753.22" gradientUnits="userSpaceOnUse">
      <stop offset="0" stop-color="#03afad"/>
      <stop offset="1" stop-color="#05fb8d"/>
    </linearGradient>
    <linearGradient id="linear-gradient-2" x1="243.18" y1="52.46" x2="823.42" y2="632.7" xlink:href="#linear-gradient"/>
    <linearGradient id="linear-gradient-3" x1="73.2" y1="222.44" x2="653.44" y2="802.68" xlink:href="#linear-gradient"/>
    <linearGradient id="linear-gradient-4" x1="299.4" y1="-3.76" x2="879.64" y2="576.48" xlink:href="#linear-gradient"/>
  </defs>
  <g>
    <path class="cls-4" d="M747.04,515.78l-83.56,78.56c-3.57,3.36-8.3,5.23-13.2,5.23h-269.78c-5.11,0-10.01,2.03-13.63,5.64l-105.05,105.05c-12.14,12.14-3.54,32.9,13.63,32.9h92.8c8.63,0,16.91-3.42,23.02-9.5l28.44-28.29c3.61-3.59,8.5-5.61,13.59-5.61h171.44l.11-.11h102.51c4.97,0,9.74-1.92,13.33-5.35l168.54-161.32c8.48-8.12,2.73-22.43-9.01-22.43h-119.99c-4.91,0-9.63,1.87-13.2,5.23Z"/>
    <path class="cls-3" d="M824.4,425.78c5.94-6.84,1.13-17.49-7.93-17.55-16.87-.11-34.53-.25-53.32-.25h-191.04c-5.11,0-10.01,2.03-13.63,5.64l-82.99,82.99c-4.44,4.44-1.32,12.04,4.97,12.07l262.09,1.19c5.62.03,10.96-2.4,14.64-6.64l67.21-77.46Z"/>
  </g>
  <g>
    <path class="cls-2" d="M387.6,302.76h-113.22c-9.45,0-18.54,3.65-25.37,10.19l-169.02,161.83c-11.58,11.09-3.73,30.63,12.3,30.63h65.88v.1l14.54-.1h45.28l206.03-1.12c11.96-.06,23.41-4.81,31.9-13.23l72.38-71.72c5.82-5.77,1.76-15.69-6.43-15.72l-194.15-.75c-8.3-.03-12.31-10.18-6.27-15.88l72.46-68.35c6.05-5.71,2.01-15.88-6.31-15.88Z"/>
    <path class="cls-1" d="M461.75,223.17l-62.51,72.04c-5.3,6.11-.96,15.62,7.13,15.62h206.37c9.09,0,17.84-3.45,24.5-9.64l87.78-81.8c4.12-3.84,1.38-10.75-4.26-10.71l-230.82,1.52c-10.82.07-21.09,4.8-28.18,12.97Z"/>
  </g>
</svg>