<?xml version="1.0" encoding="UTF-8"?>
<svg id="Layer_1" data-name="Layer 1" xmlns="http://www.w3.org/2000/svg" xmlns:xlink="http://www.w3.org/1999/xlink" viewBox="0 0 967.75 951.85">
  <defs>
    <style>
      .cls-1 {
        fill: #1c1c1c;
        font-family: ClashDisplayVariable-Semibold, 'Clash Display Variable';
        font-size: 104.42px;
        font-variation-settings: 'wght' 600;
        font-weight: 600;
      }

      .cls-2 {
        fill: url(#linear-gradient-4);
      }

      .cls-3 {
        fill: url(#linear-gradient-3);
      }

      .cls-4 {
        fill: url(#linear-gradient-2);
      }

      .cls-5 {
        fill: url(#linear-gradient);
      }
    </style>
    <linearGradient id="linear-gradient" x1="181.04" y1="474.6" x2="290.81" y2="537.54" gradientUnits="userSpaceOnUse">
      <stop offset="0" stop-color="#03afad"/>
      <stop offset="1" stop-color="#05fb8d"/>
    </linearGradient>
    <linearGradient id="linear-gradient-2" x1="200.24" y1="441.1" x2="310.02" y2="504.04" gradientUnits="userSpaceOnUse">
      <stop offset="0" stop-color="#03afad"/>
      <stop offset=".25" stop-color="#04c2a5"/>
      <stop offset="1" stop-color="#05fb8d"/>
    </linearGradient>
    <linearGradient id="linear-gradient-3" x1="183.68" y1="469.99" x2="293.46" y2="532.93" gradientUnits="userSpaceOnUse">
      <stop offset="0" stop-color="#03afad"/>
      <stop offset=".14" stop-color="#03baa8"/>
      <stop offset="1" stop-color="#05fb8d"/>
    </linearGradient>
    <linearGradient id="linear-gradient-4" x1="213.94" y1="417.21" x2="323.71" y2="480.15" xlink:href="#linear-gradient"/>
  </defs>
  <text class="cls-1" transform="translate(319.21 505.92)"><tspan x="0" y="0">CrevoPro</tspan></text>
  <g>
    <g>
      <path class="cls-5" d="M276.13,484.84l-17.74,16.68c-.76.71-1.76,1.11-2.8,1.11h-57.27c-1.09,0-2.13.43-2.89,1.2l-22.3,22.3c-2.58,2.58-.75,6.98,2.89,6.98h19.7c1.83,0,3.59-.73,4.89-2.02l6.04-6.01c.77-.76,1.8-1.19,2.89-1.19h36.4l.02-.02h21.76c1.05,0,2.07-.41,2.83-1.14l35.78-34.25c1.8-1.72.58-4.76-1.91-4.76h-25.47c-1.04,0-2.04.4-2.8,1.11Z"/>
      <path class="cls-4" d="M292.55,465.73c1.26-1.45.24-3.71-1.68-3.73-3.58-.02-7.33-.05-11.32-.05h-40.56c-1.09,0-2.13.43-2.89,1.2l-17.62,17.62c-.94.94-.28,2.56,1.05,2.56l55.64.25c1.19,0,2.33-.51,3.11-1.41l14.27-16.45Z"/>
    </g>
    <g>
      <path class="cls-3" d="M199.82,439.61h-24.04c-2.01,0-3.94.77-5.39,2.16l-35.88,34.36c-2.46,2.35-.79,6.5,2.61,6.5h13.99v.02l3.09-.02h9.61l43.74-.24c2.54-.01,4.97-1.02,6.77-2.81l15.37-15.23c1.24-1.22.37-3.33-1.37-3.34l-41.22-.16c-1.76,0-2.61-2.16-1.33-3.37l15.38-14.51c1.28-1.21.43-3.37-1.34-3.37Z"/>
      <path class="cls-2" d="M215.56,422.72l-13.27,15.3c-1.13,1.3-.2,3.32,1.51,3.32h43.81c1.93,0,3.79-.73,5.2-2.05l18.64-17.37c.88-.82.29-2.28-.9-2.27l-49,.32c-2.3.02-4.48,1.02-5.98,2.75Z"/>
    </g>
  </g>
</svg>