<?xml version="1.0" encoding="UTF-8"?>
<svg id="Layer_1" xmlns="http://www.w3.org/2000/svg" xmlns:xlink="http://www.w3.org/1999/xlink" version="1.1" viewBox="0 0 967.8 231.9">
  <!-- Generator: Adobe Illustrator 29.3.1, SVG Export Plug-In . SVG Version: 2.1.0 Build 151)  -->
  <defs>
    <style>
      .st0 {
        fill: url(#linear-gradient2);
      }

      .st1 {
        fill: url(#linear-gradient1);
      }

      .st2 {
        fill: url(#linear-gradient3);
      }

      .st3 {
        fill: url(#linear-gradient);
      }

      .st4 {
        isolation: isolate;
      }

      .st5 {
        fill: #fff;
      }
    </style>
    <linearGradient id="linear-gradient" x1="181" y1="114.4" x2="290.8" y2="51.4" gradientTransform="translate(0 224) scale(1 -1)" gradientUnits="userSpaceOnUse">
      <stop offset="0" stop-color="#03afad"/>
      <stop offset="1" stop-color="#05fb8d"/>
    </linearGradient>
    <linearGradient id="linear-gradient1" x1="200.2" y1="147.9" x2="310" y2="84.9" gradientTransform="translate(0 224) scale(1 -1)" gradientUnits="userSpaceOnUse">
      <stop offset="0" stop-color="#03afad"/>
      <stop offset=".2" stop-color="#04c2a5"/>
      <stop offset="1" stop-color="#05fb8d"/>
    </linearGradient>
    <linearGradient id="linear-gradient2" x1="183.7" y1="119" x2="293.5" y2="56.1" gradientTransform="translate(0 224) scale(1 -1)" gradientUnits="userSpaceOnUse">
      <stop offset="0" stop-color="#03afad"/>
      <stop offset=".1" stop-color="#03baa8"/>
      <stop offset="1" stop-color="#05fb8d"/>
    </linearGradient>
    <linearGradient id="linear-gradient3" x1="213.9" y1="171.8" x2="323.7" y2="108.8" gradientTransform="translate(0 224) scale(1 -1)" gradientUnits="userSpaceOnUse">
      <stop offset="0" stop-color="#03afad"/>
      <stop offset="1" stop-color="#05fb8d"/>
    </linearGradient>
  </defs>
  <g class="st4">
    <path class="st5" d="M321.8,105.9c0-21.8,14.3-36,37.4-36s35.7,10.9,35.7,28.6v1.6h-17.4v-1.6c0-9.2-5.2-13.6-18-13.6s-21.1,5.4-21.1,21,5.7,21,21.1,21,18-4.4,18-13.6v-1.6h17.4v1.6c0,17.8-13.9,28.6-35.7,28.6s-37.4-14.2-37.4-36Z"/>
    <path class="st5" d="M401.7,140.9v-52.3h14.5v13.9h.9c1.5-8.5,7-14.9,17.5-14.9s16.5,8,16.5,18.3v8.7h-15.7v-5.4c0-5.7-2.3-8.2-8.7-8.2s-9.5,3.2-9.5,9.8v30.3h-15.7Z"/>
    <path class="st5" d="M455.3,114.8c0-16.7,11.8-27.3,29-27.3s28.5,9,28.5,25.4-.2,3.2-.4,5h-42.6c.4,8,4.2,11.5,14.3,11.5s12.5-2.4,12.5-6.9v-1h15.7v1.1c0,11.4-11.1,19.3-27.7,19.3s-29.3-8.6-29.3-27.1ZM470,109.7h27.8c-.4-6.9-4.6-9.9-13.8-9.9s-13.3,3.1-14,9.9Z"/>
    <path class="st5" d="M539.1,140.9l-23.8-52.3h17.4l15.7,37.1h1l15.8-37.1h17.1l-23.9,52.3h-19.3Z"/>
    <path class="st5" d="M584.5,114.8c0-16.7,12-27.3,29.9-27.3s29.9,10.5,29.9,27.3-12,27.1-29.9,27.1-29.9-10.7-29.9-27.1ZM628.7,114.8c0-9.2-3.8-13.5-14.3-13.5s-14.3,4.3-14.3,13.5,3.7,13.3,14.3,13.3,14.3-4.1,14.3-13.3Z"/>
    <path class="st5" d="M650.6,140.9v-70h36.5c16.2,0,26.6,9.2,26.6,25.3s-10.4,25.4-26.6,25.4h-20.9v19.3h-15.7ZM666.3,85v22.4h19.2c8.7,0,12.7-2.5,12.7-11.3s-4.1-11.2-12.7-11.2h-19.2Z"/>
    <path class="st5" d="M719.3,140.9v-52.3h14.5v13.9h.9c1.5-8.5,7-14.9,17.5-14.9s16.5,8,16.5,18.3v8.7h-15.7v-5.4c0-5.7-2.3-8.2-8.7-8.2s-9.5,3.2-9.5,9.8v30.3h-15.7Z"/>
    <path class="st5" d="M772.5,114.8c0-16.7,12-27.3,29.9-27.3s29.9,10.5,29.9,27.3-12,27.1-29.9,27.1-29.9-10.7-29.9-27.1ZM816.7,114.8c0-9.2-3.8-13.5-14.3-13.5s-14.3,4.3-14.3,13.5,3.7,13.3,14.3,13.3,14.3-4.1,14.3-13.3Z"/>
  </g>
  <path class="st3" d="M276.1,119.8l-17.7,16.7c-.8.7-1.8,1.1-2.8,1.1h-57.3c-1.1,0-2.1.4-2.9,1.2l-22.3,22.3c-2.6,2.6-.8,7,2.9,7h19.7c1.8,0,3.6-.7,4.9-2l6-6c.8-.8,1.8-1.2,2.9-1.2h36.4s21.8,0,21.8,0c1,0,2.1-.4,2.8-1.1l35.8-34.2c1.8-1.7.6-4.8-1.9-4.8h-25.5c-1,0-2,.4-2.8,1.1h0Z"/>
  <path class="st1" d="M292.5,100.7c1.3-1.5.2-3.7-1.7-3.7-3.6,0-7.3,0-11.3,0h-40.6c-1.1,0-2.1.4-2.9,1.2l-17.6,17.6c-.9.9-.3,2.6,1.1,2.6l55.6.2c1.2,0,2.3-.5,3.1-1.4l14.3-16.5h0Z"/>
  <path class="st0" d="M199.8,74.6h-24c-2,0-3.9.8-5.4,2.2l-35.9,34.4c-2.5,2.4-.8,6.5,2.6,6.5h14s3.1,0,3.1,0h9.6l43.7-.2c2.5,0,5-1,6.8-2.8l15.4-15.2c1.2-1.2.4-3.3-1.4-3.3l-41.2-.2c-1.8,0-2.6-2.2-1.3-3.4l15.4-14.5c1.3-1.2.4-3.4-1.3-3.4h0Z"/>
  <path class="st2" d="M215.6,57.7l-13.3,15.3c-1.1,1.3-.2,3.3,1.5,3.3h43.8c1.9,0,3.8-.7,5.2-2l18.6-17.4c.9-.8.3-2.3-.9-2.3l-49,.3c-2.3,0-4.5,1-6,2.8h0Z"/>
</svg>