<svg width="595" height="143" viewBox="0 0 595 143" fill="none" xmlns="http://www.w3.org/2000/svg">
<path d="M197.841 65.3027C197.841 51.8599 206.633 43.1035 220.835 43.1035C235.037 43.1035 242.783 49.8249 242.783 60.7396V61.7262H232.086V60.7396C232.086 55.0664 228.889 52.3532 221.019 52.3532C213.15 52.3532 208.047 55.6831 208.047 65.3027C208.047 74.9224 211.551 78.2523 221.019 78.2523C230.487 78.2523 232.086 75.5391 232.086 69.8659V68.8793H242.783V69.8659C242.783 80.8422 234.237 87.502 220.835 87.502C207.432 87.502 197.841 78.7456 197.841 65.3027Z" fill="white"/>
<path d="M246.964 86.8857V54.6352H255.878V63.2066H256.432C257.354 57.9651 260.735 54.0186 267.191 54.0186C273.646 54.0186 277.335 58.9517 277.335 65.3032V70.668H267.682V67.3381C267.682 63.8232 266.268 62.2816 262.334 62.2816C258.399 62.2816 256.493 64.2549 256.493 68.3247V87.0091H246.841L246.964 86.8857Z" fill="white"/>
<path d="M279.917 70.7905C279.917 60.4925 287.171 53.9561 297.746 53.9561C308.32 53.9561 315.268 59.5059 315.268 69.6188C315.268 79.7318 315.145 71.5921 315.022 72.7021H288.831C289.077 77.6352 291.414 79.7935 297.623 79.7935C303.832 79.7935 305.308 78.3135 305.308 75.5386V74.922H314.96V75.6003C314.96 82.6301 308.136 87.5015 297.93 87.5015C287.725 87.5015 279.917 82.1984 279.917 70.7905ZM288.954 67.6456H306.046C305.8 63.3907 303.218 61.5408 297.561 61.5408C291.905 61.5408 289.385 63.4524 288.954 67.6456Z" fill="white"/>
<path d="M331.437 86.8853L316.805 54.6348H327.502L337.154 77.5123H337.769L347.483 54.6348H357.996L343.302 86.8853H331.437Z" fill="white"/>
<path d="M359.349 70.7905C359.349 60.4925 366.726 53.9561 377.731 53.9561C388.736 53.9561 396.113 60.4308 396.113 70.7905C396.113 81.1501 388.736 87.5015 377.731 87.5015C366.726 87.5015 359.349 80.9034 359.349 70.7905ZM386.523 70.7905C386.523 65.1173 384.186 62.4658 377.731 62.4658C371.276 62.4658 368.939 65.1173 368.939 70.7905C368.939 76.4636 371.214 78.9918 377.731 78.9918C384.248 78.9918 386.523 76.4636 386.523 70.7905Z" fill="white"/>
<path d="M399.987 86.8849V43.7197H422.427C432.386 43.7197 438.78 49.3929 438.78 59.3208C438.78 69.2488 432.386 74.9836 422.427 74.9836H409.577V86.8849H399.925H399.987ZM409.639 52.4144V66.2273H421.443C426.792 66.2273 429.251 64.6857 429.251 59.2592C429.251 53.8327 426.73 52.3528 421.443 52.3528H409.639V52.4144Z" fill="white"/>
<path d="M442.223 86.8857V54.6352H451.138V63.2066H451.691C452.613 57.9651 455.995 54.0186 462.45 54.0186C468.905 54.0186 472.594 58.9517 472.594 65.3032V70.668H462.942V67.3381C462.942 63.8232 461.528 62.2816 457.593 62.2816C453.658 62.2816 451.752 64.2549 451.752 68.3247V87.0091H442.1L442.223 86.8857Z" fill="white"/>
<path d="M474.93 70.7905C474.93 60.4925 482.308 53.9561 493.313 53.9561C504.318 53.9561 511.695 60.4308 511.695 70.7905C511.695 81.1501 504.318 87.5015 493.313 87.5015C482.308 87.5015 474.93 80.9034 474.93 70.7905ZM502.104 70.7905C502.104 65.1173 499.768 62.4658 493.313 62.4658C486.857 62.4658 484.521 65.1173 484.521 70.7905C484.521 76.4636 486.796 78.9918 493.313 78.9918C499.83 78.9918 502.104 76.4636 502.104 70.7905Z" fill="white"/>
<path d="M169.745 73.8745L158.863 84.1724C158.372 84.6041 157.757 84.8507 157.142 84.8507H121.914C121.238 84.8507 120.623 85.0974 120.131 85.5907L106.421 99.3419C104.823 100.945 105.929 103.658 108.204 103.658H120.316C121.422 103.658 122.529 103.227 123.328 102.425L127.017 98.7253C127.509 98.2319 128.124 97.9853 128.8 97.9853H151.178H164.581C165.196 97.9853 165.872 97.7386 166.302 97.307L188.312 76.2177C189.419 75.1694 188.681 73.2578 187.144 73.2578H171.467C170.852 73.2578 170.237 73.5045 169.745 73.9361V73.8745Z" fill="url(#paint0_linear_75_218)"/>
<path d="M179.828 62.096C180.627 61.1711 179.951 59.8145 178.783 59.8145C176.57 59.8145 174.295 59.8145 171.836 59.8145H146.875C146.199 59.8145 145.584 60.0611 145.092 60.5544L134.272 71.4074C133.718 71.9624 134.087 73.0107 134.948 73.0107L169.131 73.134C169.868 73.134 170.545 72.8257 171.036 72.2707L179.828 62.096Z" fill="url(#paint1_linear_75_218)"/>
<path d="M122.836 46.002H108.081C106.852 46.002 105.684 46.4953 104.761 47.3586L82.6901 68.5712C81.1531 70.0511 82.1983 72.5794 84.2886 72.5794H92.8957H94.8016H100.704L127.57 72.456C129.107 72.456 130.644 71.8394 131.751 70.7294L141.219 61.3564C141.957 60.6164 141.465 59.3215 140.358 59.3215L115.028 59.1982C113.922 59.1982 113.43 57.8415 114.229 57.1016L123.697 48.1602C124.496 47.4202 123.943 46.0636 122.898 46.0636L122.836 46.002Z" fill="url(#paint2_linear_75_218)"/>
<path d="M132.55 35.5805L124.373 45.0152C123.697 45.8169 124.25 47.0501 125.296 47.0501H152.224C153.392 47.0501 154.56 46.6185 155.421 45.8169L166.856 35.0872C167.409 34.5939 167.04 33.6689 166.302 33.6689L136.177 33.8539C134.763 33.8539 133.411 34.4706 132.489 35.5805H132.55Z" fill="url(#paint3_linear_75_218)"/>
<defs>
<linearGradient id="paint0_linear_75_218" x1="111.278" y1="67.5847" x2="178.883" y2="106.258" gradientUnits="userSpaceOnUse">
<stop stop-color="#03AFAD"/>
<stop offset="1" stop-color="#05FB8D"/>
</linearGradient>
<linearGradient id="paint1_linear_75_218" x1="123.082" y1="46.9266" x2="190.687" y2="85.6" gradientUnits="userSpaceOnUse">
<stop stop-color="#03AFAD"/>
<stop offset="0.2" stop-color="#04C2A5"/>
<stop offset="1" stop-color="#05FB8D"/>
</linearGradient>
<linearGradient id="paint2_linear_75_218" x1="112.938" y1="64.748" x2="180.543" y2="103.36" gradientUnits="userSpaceOnUse">
<stop stop-color="#03AFAD"/>
<stop offset="0.1" stop-color="#03BAA8"/>
<stop offset="1" stop-color="#05FB8D"/>
</linearGradient>
<linearGradient id="paint3_linear_75_218" x1="131.505" y1="32.189" x2="199.11" y2="70.8624" gradientUnits="userSpaceOnUse">
<stop stop-color="#03AFAD"/>
<stop offset="1" stop-color="#05FB8D"/>
</linearGradient>
</defs>
</svg>
