<svg width="93" height="91" viewBox="0 0 93 91" fill="none" xmlns="http://www.w3.org/2000/svg">
<path d="M73.8627 52.3866L65.3899 60.3121C65.0269 60.6494 64.5493 60.8395 64.0526 60.8395H36.6998C36.1792 60.8395 35.6825 61.0438 35.3195 61.4097L24.6688 72.0055C23.4365 73.2313 24.3105 75.322 26.049 75.322H35.458C36.332 75.322 37.1726 74.9751 37.7935 74.3622L40.6783 71.5066C41.046 71.1454 41.538 70.9411 42.0586 70.9411H59.4436L59.4532 70.9316H69.846C70.3475 70.9316 70.8347 70.7368 71.1977 70.3899L88.2866 54.1162C89.1463 53.2989 88.5636 51.8545 87.3744 51.8545H75.2096C74.7129 51.8545 74.2353 52.0445 73.8723 52.3819L73.8627 52.3866Z" fill="url(#paint0_linear_3314_158)"/>
<path d="M81.7051 43.3066C82.3069 42.6176 81.8197 41.5438 80.9027 41.5343C79.1928 41.5248 77.4018 41.5105 75.4961 41.5105H56.1242C55.6036 41.5105 55.1069 41.7148 54.7439 42.0807L46.3284 50.4528C45.8794 50.8994 46.1947 51.6692 46.8299 51.6692L73.4042 51.788C73.9725 51.788 74.517 51.5456 74.8895 51.118L81.7051 43.3018V43.3066Z" fill="url(#paint1_linear_3314_158)"/>
<path d="M37.4162 30.8957H25.9344C24.9744 30.8957 24.0526 31.2616 23.3601 31.9221L6.22341 48.2481C5.04849 49.3647 5.8461 51.3366 7.46998 51.3366H14.1518V51.3461L15.6276 51.3366H20.2174L41.1082 51.2225C42.3213 51.2178 43.4819 50.7379 44.3416 49.8874L51.6825 42.6509C52.2747 42.0712 51.8592 41.0686 51.0281 41.0639L31.341 40.9879C30.5004 40.9879 30.0944 39.9616 30.7058 39.3866L38.0514 32.4922C38.6628 31.9173 38.2568 30.891 37.4114 30.891L37.4162 30.8957Z" fill="url(#paint2_linear_3314_158)"/>
<path d="M44.9338 22.8705L38.5959 30.1402C38.0562 30.7579 38.5004 31.7177 39.3171 31.7177H60.2413C61.1631 31.7177 62.0514 31.3709 62.7249 30.7437L71.6275 22.4904C72.0478 22.1008 71.766 21.407 71.1977 21.4118L47.7947 21.5638C46.6962 21.5733 45.655 22.0485 44.9386 22.8705H44.9338Z" fill="url(#paint3_linear_3314_158)"/>
<defs>
<linearGradient id="paint0_linear_3314_158" x1="28.4467" y1="47.5211" x2="80.7395" y2="77.6604" gradientUnits="userSpaceOnUse">
<stop stop-color="#03AFAD"/>
<stop offset="1" stop-color="#05FB8D"/>
</linearGradient>
<linearGradient id="paint1_linear_3314_158" x1="37.6168" y1="31.6037" x2="89.9143" y2="61.743" gradientUnits="userSpaceOnUse">
<stop stop-color="#03AFAD"/>
<stop offset="0.25" stop-color="#04C2A5"/>
<stop offset="1" stop-color="#05FB8D"/>
</linearGradient>
<linearGradient id="paint2_linear_3314_158" x1="29.7076" y1="45.3307" x2="82.0052" y2="75.47" gradientUnits="userSpaceOnUse">
<stop stop-color="#03AFAD"/>
<stop offset="0.14" stop-color="#03BAA8"/>
<stop offset="1" stop-color="#05FB8D"/>
</linearGradient>
<linearGradient id="paint3_linear_3314_158" x1="44.1601" y1="20.2524" x2="96.4529" y2="50.3917" gradientUnits="userSpaceOnUse">
<stop stop-color="#03AFAD"/>
<stop offset="1" stop-color="#05FB8D"/>
</linearGradient>
</defs>
</svg>
